<?xml version="1.0" encoding="UTF-8"?><svg xmlns="http://www.w3.org/2000/svg" width="1280" height="1024" viewBox="0 0 1280 1024"><defs><style>.c{font-family:AguafinaScript-Regular, Aguafina Script;font-size:125px;}.d{fill:none;stroke:#000;stroke-miterlimit:10;}</style></defs><g id="a"><path class="d" d="M768.5,627.5c3.58,.48,23.2,2.76,41-11,17.86-13.8,20.57-33.43,21-37"/><path class="d" d="M778.5,592.5c1.22-.03,12.28-.5,19-10,4.91-6.95,5.66-16.13,2-24"/><path class="d" d="M748.5,672.5c3.31-4.77,6.78-10.43,10-17,5.1-10.39,8.14-20.05,10-28"/><path class="d" d="M310.5,782.5c-9.18-.77-22.33-2.19-38-5-10.4-1.86-30.53-5.56-48-12-17.79-6.56-56.56-20.85-67-49-9.26-24.95,7.58-50.44,39-98,17.71-26.81,41.05-61.52,84-96,46.41-37.25,90.49-53.99,108-60,22.58-7.75,145.28-49.85,268,15,63.92,33.78,101.87,82.85,122,115"/><path class="d" d="M882.5,447.5c-45.77,7.13-85.96,5.23-117,1,24.14-5.27,52.09-9.86,83.29-12.31,32.23-2.53,61.42-2.27,86.71-.69-15.78,4.72-33.5,8.96-53,12Z"/><path class="d" d="M935.5,434.5c2.53,11.89,4.87,30.87,0,53-2.62,11.92-13.93,54.75-55,78-19.23,10.89-37.92,13.49-50,14"/><path class="d" d="M764.5,448.5c-2.61,3.83-18.88,28.5-11,60,8.99,35.97,41.66,49.67,45,51"/><path class="d" d="M754.5,511.5c8.91,3.49,21.52,6.85,36,5,19.2-2.45,23.27-11.72,41.88-12.59,18.46-.86,20.14,7.99,37.12,5.59,13.68-1.94,16.58-8.24,33.66-12.95,12.45-3.43,23.29-3.49,30.34-3.05"/><text class="c" transform="translate(329.02 784.23) rotate(3.77)"><tspan x="0" y="0">F</tspan></text><text class="c" transform="translate(366.23 786.48) rotate(1.56)"><tspan x="0" y="0">i</tspan></text><text class="c" transform="translate(390.94 787.22) rotate(-.45)"><tspan x="0" y="0">s</tspan></text><text class="c" transform="translate(427.28 786.82) rotate(-2.71)"><tspan x="0" y="0">k</tspan></text><text class="c" transform="translate(474.24 784.53) rotate(-4.65)"><tspan x="0" y="0"> </tspan></text><text class="c" transform="translate(501.58 783.55) rotate(-9.46)"><tspan x="0" y="0">&amp;</tspan></text><text class="c" transform="translate(576.07 769.44) rotate(-16.47)"><tspan x="0" y="0"> </tspan></text><text class="c" transform="translate(602.45 761.78) rotate(-21.47)"><tspan x="0" y="0">V</tspan></text><text class="c" transform="translate(647.8 742.93) rotate(-27.13)"><tspan x="0" y="0">i</tspan></text><text class="c" transform="translate(672.9 730.42) rotate(-32.44)"><tspan x="0" y="0">n</tspan></text></g><g id="b"/></svg>