<?xml version="1.0" encoding="UTF-8"?><svg xmlns="http://www.w3.org/2000/svg" width="1280" height="1024" viewBox="0 0 1280 1024"><defs><style>.c{font-family:Quicksand-Light, Quicksand;font-size:90px;}.d{fill:none;stroke:#000;stroke-miterlimit:10;}</style></defs><g id="a"><path class="d" d="M886.95,499.07c3.6-.27,23.26-2.12,37.82-19.28,14.6-17.21,13.18-36.97,12.86-40.56"/><path class="d" d="M889.46,462.76c1.19-.28,11.91-3.04,16.51-13.73,3.36-7.82,2.18-16.95-3.03-23.89"/><path class="d" d="M876.74,547.25c2.25-5.36,4.46-11.61,6.25-18.71,2.83-11.22,3.8-21.3,3.97-29.47"/><path class="d" d="M471.14,745.83c-9.14,1.15-22.3,2.49-38.21,3-10.56,.34-31.02,.9-49.45-1.77-18.76-2.72-59.65-8.65-75.72-34.01-14.24-22.48-3.06-50.91,17.79-103.96,11.76-29.91,27.38-68.71,62.23-111.35,37.66-46.08,77.3-71.61,93.18-81.12,20.48-12.27,131.76-78.94,265.27-40.99,69.54,19.77,116.86,59.88,143.23,87.15"/><path class="d" d="M961.08,299.32c-43.29,16.49-83,22.97-114.24,25.28,22.52-10.17,48.9-20.46,78.91-29.34,31-9.17,59.61-14.98,84.68-18.69-14.46,7.89-30.91,15.72-49.35,22.75Z"/><path class="d" d="M1010.22,275.6c4.95,11.1,11.17,29.18,11.01,51.84-.09,12.21-2.25,56.45-37.6,87.72-16.55,14.64-34.29,21.07-46,24.08"/><path class="d" d="M845.86,324.81c-1.76,4.28-12.55,31.8,1.7,60.98,16.27,33.32,51.07,39.93,54.61,40.54"/><path class="d" d="M849.16,388.51c9.44,1.56,22.47,2.23,36.25-2.59,18.28-6.39,20.33-16.3,38.35-21.01,17.88-4.68,21.36,3.63,37.47-2.24,12.98-4.73,14.5-11.51,30.24-19.66,11.46-5.94,22.06-8.25,29.04-9.29"/><text class="c" transform="translate(488.79 744.1) rotate(-8.89)"><tspan x="0" y="0">F</tspan></text><text class="c" transform="translate(540.75 735.59) rotate(-11.32)"><tspan x="0" y="0">i</tspan></text><text class="c" transform="translate(560.34 731.86) rotate(-13.41)"><tspan x="0" y="0">s</tspan></text><text class="c" transform="translate(601.71 721.86) rotate(-15.38)"><tspan x="0" y="0">k</tspan></text><text class="c" transform="translate(648.75 708.77) rotate(-17.88)"><tspan x="0" y="0"> </tspan></text><text class="c" transform="translate(675.6 700.96) rotate(-23.21)"><tspan x="0" y="0">&amp;</tspan></text><text class="c" transform="translate(734.48 674.36) rotate(-29.73)"><tspan x="0" y="0"> </tspan></text><text class="c" transform="translate(759.8 660.73) rotate(-36.22)"><tspan x="0" y="0">V</tspan></text><text class="c" transform="translate(810.11 622.35) rotate(-41.98)"><tspan x="0" y="0">i</tspan></text><text class="c" transform="translate(826.76 608.11) rotate(-46.9)"><tspan x="0" y="0">n</tspan></text></g><g id="b"/></svg>