<?xml version="1.0" encoding="UTF-8"?><svg xmlns="http://www.w3.org/2000/svg" width="1280" height="1024" viewBox="0 0 1280 1024"><defs><style>.c{font-size:99px;}.c,.d,.e{font-family:AlexBrush-Regular, Alex Brush;}.d{font-size:110px;}.f{fill:none;stroke:#000;stroke-miterlimit:10;}.e{font-size:50px;}</style></defs><g id="a"><path class="f" d="M886.95,499.07c3.6-.27,23.26-2.12,37.82-19.28,14.6-17.21,13.18-36.97,12.86-40.56"/><path class="f" d="M889.46,462.76c1.19-.28,11.91-3.04,16.51-13.73,3.36-7.82,2.18-16.95-3.03-23.89"/><path class="f" d="M876.74,547.25c2.25-5.36,4.46-11.61,6.25-18.71,2.83-11.22,3.8-21.3,3.97-29.47"/><path class="f" d="M471.14,745.83c-9.14,1.15-22.3,2.49-38.21,3-17.62,.56-32.69-.28-49.45-1.77-51.63-4.58-77.44-6.88-83.98-14.56-14.03-16.48-.67-52.13,26.06-123.42,11.59-30.92,23.03-54.46,38.15-78.15,6.85-10.73,14.78-21.83,24.07-33.21,37.66-46.08,77.3-71.61,93.18-81.12,20.48-12.27,131.76-78.94,265.27-40.99,69.54,19.77,116.86,59.88,143.23,87.15"/><path class="f" d="M961.08,299.32c-43.29,16.49-83,22.97-114.24,25.28,22.52-10.17,48.9-20.46,78.91-29.34,31-9.17,59.61-14.98,84.68-18.69-14.46,7.89-30.91,15.72-49.35,22.75Z"/><path class="f" d="M1010.22,275.6c4.95,11.1,11.17,29.18,11.01,51.84-.09,12.21-2.25,56.45-37.6,87.72-16.55,14.64-34.29,21.07-46,24.08"/><path class="f" d="M845.86,324.81c-1.76,4.28-12.55,31.8,1.7,60.98,16.27,33.32,51.07,39.93,54.61,40.54"/><path class="f" d="M849.16,388.51c9.44,1.56,22.47,2.23,36.25-2.59,18.28-6.39,20.33-16.3,38.35-21.01,17.88-4.68,21.36,3.63,37.47-2.24,12.98-4.73,14.5-11.51,30.24-19.66,11.46-5.94,22.06-8.25,29.04-9.29"/><text class="d" transform="translate(489.66 744.32) rotate(-9.56)"><tspan x="0" y="0">F</tspan></text><text class="d" transform="translate(560.75 731.6) rotate(-12.87)"><tspan x="0" y="0">i</tspan></text><text class="d" transform="translate(586.46 725.71) rotate(-14.72)"><tspan x="0" y="0">s</tspan></text><text class="d" transform="translate(626.36 715.41) rotate(-16.81)"><tspan x="0" y="0">k</tspan></text><text class="c" transform="translate(670.32 701.83) rotate(-20.07)"><tspan x="0" y="0"> </tspan></text><text class="e" transform="translate(692 694.19) rotate(-24.11)"><tspan x="0" y="0">&amp;</tspan></text><text class="c" transform="translate(729.57 676.85) rotate(-28.62)"><tspan x="0" y="0"> </tspan></text><text class="d" transform="translate(753.11 665.62) rotate(-36.2)"><tspan x="0" y="0">V</tspan></text><text class="d" transform="translate(818.11 615.38) rotate(-43.77)"><tspan x="0" y="0">i</tspan></text><text class="d" transform="translate(839.12 595.57) rotate(-48.64)"><tspan x="0" y="0">n</tspan></text></g><g id="b"/></svg>