<?xml version="1.0" encoding="UTF-8"?><svg id="Layer_2" xmlns="http://www.w3.org/2000/svg" width="720.64" height="499.89" viewBox="0 0 720.64 499.89"><defs><style>.cls-1{fill:none;stroke:#000;stroke-miterlimit:10;}</style></defs><path class="cls-1" d="M585.96,223.75c3.6-.28,23.26-2.13,37.81-19.3,14.59-17.21,13.16-36.98,12.83-40.56"/><path class="cls-1" d="M588.45,187.44c1.19-.28,11.91-3.05,16.5-13.74,3.36-7.82,2.18-16.95-3.04-23.89"/><path class="cls-1" d="M575.77,271.93c2.25-5.36,4.45-11.62,6.24-18.71,2.83-11.22,3.78-21.31,3.95-29.47"/><path class="cls-1" d="M170.29,470.74c-9.14,1.16-22.3,2.51-38.21,3.02-10.55,.34-31.02,.92-49.45-1.74-18.76-2.71-59.66-8.62-75.74-33.97-14.25-22.47-3.09-50.91,17.73-103.97,11.74-29.91,27.34-68.73,62.16-111.39,37.63-46.1,77.26-71.65,93.14-81.18,20.47-12.28,131.71-79.02,265.25-41.15,69.55,19.73,116.89,59.81,143.28,87.07"/><path class="cls-1" d="M659.97,23.96c-43.28,16.51-82.98,23.01-114.23,25.35,22.51-10.19,48.89-20.49,78.89-29.39,31-9.19,59.6-15.01,84.67-18.73-14.45,7.9-30.9,15.74-49.34,22.78Z"/><path class="cls-1" d="M709.1,.2c4.95,11.1,11.19,29.18,11.04,51.84-.08,12.21-2.22,56.45-37.55,87.74-16.54,14.65-34.28,21.09-45.99,24.11"/><path class="cls-1" d="M544.77,49.51c-1.76,4.29-12.53,31.8,1.74,60.98,16.29,33.31,51.09,39.9,54.64,40.51"/><path class="cls-1" d="M548.11,113.21c9.44,1.56,22.47,2.22,36.25-2.61,18.27-6.4,20.32-16.31,38.34-21.03,17.88-4.69,21.36,3.62,37.47-2.27,12.98-4.74,14.5-11.52,30.23-19.68,11.46-5.95,22.06-8.27,29.04-9.3"/><g><path d="M205.31,475.02c-3.07,.21-5.08-.32-6.02-1.59-.94-1.27-1.58-2.99-1.92-5.17-.37-2.37-.33-5.36,.12-8.97,.45-3.61,1.1-7.58,1.95-11.89,.85-4.32,1.71-8.63,2.59-12.95-.78,.19-1.61,.4-2.48,.64s-1.96,.54-3.25,.91c-1.29,.37-2.97,.88-5.02,1.54-.14-1.73,.3-3.17,1.3-4.3,1-1.13,2.42-2.08,4.26-2.84,1.84-.76,3.94-1.35,6.3-1.79,1.06-5.36,2.18-10.61,3.37-15.75,1.19-5.14,2.43-9.87,3.71-14.19-.67,.04-1.32,.09-1.95,.15-.63,.06-1.28,.15-1.93,.25-4.22,.66-7.41,1.59-9.58,2.8-2.17,1.22-3.55,2.78-4.13,4.69-.58,1.91-.66,4.25-.23,7.02,.23,1.45,.53,2.77,.92,3.96,.39,1.19,.91,2.41,1.58,3.65-2.3-.05-4.08-.66-5.35-1.85-1.26-1.19-2.05-2.8-2.37-4.84-.53-3.42,.22-6.63,2.25-9.61,2.03-2.98,4.99-5.53,8.88-7.66,3.89-2.12,8.33-3.57,13.34-4.35,3.49-.54,6.91-.82,10.24-.83,3.34-.01,6.55-.26,9.65-.74,1.38-.22,2.64-.49,3.77-.84,1.13-.34,2.26-.77,3.39-1.29-2.01,3.15-3.76,5.31-5.27,6.49-1.5,1.18-3.11,1.9-4.82,2.17-1.52,.24-3.51,.33-5.98,.27-2.47-.05-5.24,.02-8.31,.23-.52,2.31-1.07,5.07-1.64,8.3-.58,3.23-1.16,6.66-1.74,10.29-.58,3.63-1.17,7.25-1.75,10.85,3.32-.32,6.48-.5,9.48-.56,2.99-.06,5.68-.24,8.06-.54-.41,.87-.92,1.58-1.54,2.11-.62,.54-1.55,1-2.77,1.39-1.22,.39-2.93,.81-5.12,1.25-2.19,.44-5.13,.98-8.81,1.62-.18,1.44-.42,3.17-.71,5.17-.3,2-.54,3.9-.74,5.68-.2,1.79-.36,3.09-.5,3.92-.66,5.3-1.16,10.23-1.49,14.81-.34,4.57-.25,8.71,.26,12.41Z"/><path d="M243.01,462.46c-2.55,.5-4.61,.08-6.17-1.28s-2.56-3.18-3.02-5.47c-.3-1.5-.39-3.46-.29-5.86,.1-2.4,.36-4.95,.78-7.65,.42-2.7,1.01-5.28,1.78-7.74,.77-2.46,1.71-4.53,2.8-6.21,1.1-1.68,2.3-2.65,3.61-2.9,.59-.12,1.13-.04,1.63,.24,.5,.28,.82,.77,.96,1.49,.16,.78-.1,2.16-.76,4.12-.67,1.97-1.46,4.23-2.38,6.79-.92,2.56-1.64,5.2-2.16,7.92-.52,2.72-.55,5.22-.1,7.51,.46,2.36,1.17,3.85,2.11,4.48,.94,.63,2.23,.78,3.86,.46,2.22-.44,4.38-2.02,6.45-4.74,2.08-2.72,3.98-7.14,5.69-13.25l1.08,.81c-.79,6-2.67,10.86-5.63,14.57-2.97,3.71-6.39,5.95-10.24,6.71Zm2.9-47.26c-1.05,.21-2.03,.13-2.95-.23-.92-.36-1.49-1.1-1.71-2.21-.27-1.37,.29-2.72,1.7-4.06,1.4-1.33,2.89-2.15,4.46-2.46,.98-.19,1.81-.12,2.49,.22,.68,.34,1.13,1.07,1.35,2.18,.25,1.24-.19,2.57-1.3,3.98-1.11,1.41-2.46,2.27-4.03,2.58Z"/><path d="M272.02,458.96c-3.05,.72-5.62,.62-7.72-.29-2.1-.91-3.75-2.25-4.95-4.02-1.2-1.77-2.03-3.63-2.49-5.58-.46-1.95-.55-3.5-.27-4.66,.28-1.16,.73-2.09,1.35-2.78,.62-.69,1.25-1.25,1.87-1.67,.62-.42,1.03-.79,1.23-1.11,1.44-2.6,2.7-5.26,3.78-7.97,1.07-2.72,1.92-5.52,2.55-8.4l-.27-1.17c-.56-2.4-.56-4.2,.02-5.4,.58-1.2,1.32-1.9,2.23-2.11,.52-.12,.94-.08,1.26,.12,.32,.2,.52,.46,.6,.78,.08,.33,.1,.87,.07,1.63-.03,.76,.09,1.69,.35,2.79,.5,2.14,1.47,4.36,2.9,6.66,1.43,2.3,2.89,4.73,4.38,7.29,1.49,2.56,2.59,5.33,3.29,8.32,.2,.84,.34,1.68,.44,2.52,.09,.83,.13,1.63,.1,2.39,2.18-.92,4.08-2.45,5.71-4.57,1.62-2.13,2.95-5.23,3.98-9.31l1.1,.77c-.4,3.86-1.61,7-3.64,9.43-2.03,2.43-4.46,4.21-7.27,5.35-.38,3.04-1.54,5.46-3.48,7.29-1.93,1.82-4.3,3.06-7.09,3.72Zm-.61-3.45c.78-.18,1.76-.69,2.93-1.51,1.17-.83,1.87-2.39,2.08-4.7-2.85,.12-5.52-.38-8.01-1.51-2.49-1.13-4.45-2.38-5.87-3.76-1.41,.4-1.86,1.71-1.34,3.91,.55,2.34,1.75,4.33,3.61,5.98,1.86,1.65,4.05,2.18,6.59,1.59Zm5.13-7.88c-.02-.68-.08-1.38-.19-2.11-.1-.73-.27-1.58-.5-2.55-.72-3.05-1.8-6-3.26-8.84-1.46-2.84-2.75-5.53-3.9-8.07-.92,2.82-1.94,5.54-3.06,8.17-1.13,2.63-2.27,4.86-3.41,6.71,1.46,1.85,3.43,3.44,5.9,4.78,2.47,1.34,5.28,1.98,8.41,1.93Z"/><path d="M325.34,443.96c-1.8,.49-3.51,.3-5.13-.57-1.62-.87-3.05-2.14-4.3-3.8-1.25-1.66-2.32-3.43-3.2-5.3-.89-1.87-1.53-3.54-1.94-5.02,.71-.19,1.69-.65,2.94-1.37,1.25-.72,2.49-1.64,3.7-2.77,1.21-1.12,2.16-2.42,2.83-3.88,.67-1.46,.79-3,.35-4.6-.37-1.35-1.14-2.28-2.31-2.79-1.17-.51-2.41-.59-3.69-.24-2,.54-3.67,1.74-5.03,3.6-1.36,1.86-2.43,4.08-3.21,6.67-.78,2.6-1.38,5.3-1.79,8.1-.41,2.81-.7,5.44-.86,7.9-.16,2.46-.3,4.5-.41,6.12-.07,1.26-.4,2.2-1,2.81-.59,.61-1.28,1.02-2.05,1.23-1.09,.3-2,.06-2.73-.71-.73-.77-1.33-1.83-1.8-3.19-.47-1.36-.91-2.77-1.31-4.25-.91-3.34-1.41-7.35-1.51-12.02-.1-4.67,.13-9.62,.68-14.85,.55-5.23,1.31-10.36,2.29-15.39,.98-5.03,2.07-9.65,3.28-13.85,1.21-4.2,2.45-7.61,3.74-10.24,1.29-2.63,2.51-4.1,3.67-4.42,.9-.25,1.79,.17,2.67,1.24,.88,1.08,1.55,2.48,2.03,4.22,.59,2.19,.78,4.78,.56,7.78-.22,3-.84,6.12-1.86,9.37-1.02,3.25-2.4,6.42-4.15,9.52-1.75,3.1-3.8,5.9-6.16,8.41-.71,5.79-.92,11.29-.64,16.5,.28,5.21,.87,9.49,1.78,12.83,.33-2.85,.8-6.02,1.41-9.5,.61-3.48,1.46-6.89,2.56-10.23,1.1-3.34,2.49-6.2,4.19-8.6,1.7-2.39,3.74-3.92,6.12-4.56,2.38-.65,4.63-.36,6.76,.86,2.13,1.22,3.51,3.02,4.16,5.4,.56,2.06,.5,3.96-.16,5.69-.67,1.74-1.64,3.25-2.92,4.52-1.28,1.28-2.61,2.33-4.01,3.16-1.4,.83-2.58,1.38-3.54,1.64,.2,.5,.65,1.38,1.34,2.64,.69,1.26,1.54,2.55,2.55,3.87,1.01,1.31,2.11,2.38,3.3,3.2,1.19,.82,2.43,1.05,3.71,.7,1.87-.51,3.44-1.7,4.73-3.57,1.29-1.87,2.37-4.18,3.24-6.94,.87-2.76,1.55-5.79,2.03-9.1l1.23,.7c-.04,3.4-.62,6.75-1.72,10.05-1.11,3.31-2.56,6.15-4.36,8.54-1.8,2.39-3.83,3.89-6.08,4.5Zm-25.08-36.6c2.31-3.18,4.17-6.59,5.56-10.22,1.4-3.63,2.33-7,2.79-10.14,.46-3.13,.47-5.5,.04-7.11-.09-.32-.17-.54-.23-.66-.07-.12-.17-.16-.29-.13-.64,.17-1.45,1.6-2.41,4.28-.96,2.68-1.94,6.14-2.93,10.38-.99,4.24-1.83,8.77-2.52,13.59Z"/><path d="M390.19,428.57c-3.7,1.53-7.22,2.08-10.57,1.66-3.35-.42-6.27-1.61-8.78-3.57-2.5-1.96-4.38-4.45-5.63-7.47-1.17-2.83-1.7-5.86-1.59-9.08,.11-3.22,.8-6.41,2.06-9.56,1.26-3.15,3.04-6.05,5.33-8.7,2.3-2.64,5.05-4.81,8.25-6.49-3.22-.98-5.93-2.53-8.14-4.64-2.21-2.12-3.85-4.47-4.92-7.06-1.35-3.27-1.8-6.71-1.34-10.32,.46-3.61,1.74-6.92,3.85-9.92,2.11-3,5.02-5.27,8.72-6.79,3.33-1.38,6.18-1.58,8.56-.62,2.38,.96,4.24,3.05,5.56,6.25,.94,2.28,1.5,4.67,1.66,7.16,.17,2.49,0,4.66-.51,6.49-.51,1.83-1.28,2.97-2.33,3.4-.68,.28-1.45,.26-2.3-.08-.86-.33-1.64-.82-2.34-1.47,1.37-2.8,2.35-5.53,2.94-8.2,.59-2.66,.4-5.2-.6-7.6-.79-1.91-1.94-3.26-3.45-4.04-1.51-.78-3.35-.73-5.5,.16-2.9,1.2-4.97,3.08-6.21,5.65-1.25,2.57-1.79,5.5-1.62,8.78,.17,3.28,.94,6.59,2.31,9.92,.61,1.48,1.4,2.99,2.36,4.54,.96,1.55,2.16,2.97,3.6,4.25,1.43,1.28,3.15,2.27,5.17,2.95-3.85,2.38-6.79,5.44-8.82,9.16-2.03,3.72-3.21,7.6-3.53,11.63-.32,4.03,.2,7.67,1.54,10.94,.84,2.03,2.07,3.92,3.7,5.67,1.62,1.75,3.58,2.96,5.88,3.63,2.3,.67,4.89,.41,7.79-.79,3.27-1.35,6.08-3.48,8.44-6.41,2.36-2.92,4.22-6.29,5.57-10.09,1.35-3.8,2.11-7.78,2.27-11.92,.16-4.14-.3-8.15-1.4-12.03-1.27,.6-2.42,1.18-3.44,1.75-1.03,.57-2.14,1.23-3.35,1.98-1.21,.75-2.73,1.76-4.59,3.03-.95-2.64-.67-4.77,.82-6.4,1.49-1.62,3.53-2.97,6.12-4.04,1.85-.76,3.66-1.37,5.42-1.81s3.45-.85,5.06-1.23c1.61-.38,3.05-.79,4.3-1.24-.09,1.7-.41,2.82-.94,3.36-.53,.54-1.11,.94-1.72,1.2-1.05,.43-2.01,.85-2.89,1.25-.88,.4-1.69,.75-2.43,1.06,1.33,4.43,1.85,8.97,1.58,13.63-.28,4.66-1.25,9.12-2.91,13.38-1.67,4.26-3.93,8.03-6.8,11.3-2.87,3.28-6.27,5.73-10.21,7.36Z"/><path d="M480.25,381.11c-.75,.55-1.81,1.06-3.17,1.51-1.36,.46-2.79,.54-4.29,.23-1.51-.3-2.91-1.34-4.21-3.12-1.14-1.56-2.3-3.85-3.48-6.87-1.18-3.02-2.41-6.48-3.69-10.37-1.29-3.89-2.69-7.95-4.21-12.17-1.52-4.22-3.22-8.32-5.11-12.31-1.89-3.99-4.02-7.6-6.38-10.82-1.46-1.99-2.88-3.79-4.28-5.42-1.39-1.62-2.81-2.71-4.25-3.27-1.44-.55-2.97-.24-4.58,.94-1.51,1.1-2.46,2.48-2.86,4.14-.4,1.66-.42,3.43-.07,5.32,.35,1.89,.95,3.72,1.8,5.5,.85,1.78,1.76,3.34,2.75,4.68,.63,.86,1.28,1.61,1.94,2.23,.67,.63,1.32,1.16,1.97,1.59-2.1,1.54-4,2.04-5.71,1.52-1.71-.53-3.13-1.57-4.28-3.13-1.22-1.67-2.05-3.62-2.49-5.86-.44-2.24-.5-4.57-.17-7,.33-2.43,1.06-4.72,2.21-6.88,1.15-2.16,2.71-3.97,4.7-5.43,3.33-2.44,6.78-2.96,10.33-1.56,3.55,1.41,6.92,4.29,10.11,8.64,2.29,3.12,4.33,6.64,6.13,10.57,1.8,3.93,3.43,7.96,4.9,12.1,1.46,4.14,2.81,8.15,4.04,12.04,1.24,3.89,2.47,7.41,3.7,10.55,1.23,3.15,2.52,5.64,3.86,7.46,.67,.91,1.37,1.56,2.1,1.93,.73,.38,1.55,.23,2.46-.44,1.5-1.1,2.69-3.15,3.56-6.14,.87-2.99,1.39-6.59,1.56-10.81,.17-4.22,.05-8.73-.38-13.55-.42-4.81-1.16-9.62-2.21-14.43-1.05-4.81-2.36-9.32-3.96-13.53-1.59-4.21-3.47-7.79-5.64-10.74-1.97-2.69-3.82-4.37-5.55-5.04-1.73-.67-3.41-.7-5.03-.1-.19-1.84-.09-3.36,.31-4.57,.4-1.2,.95-2.06,1.65-2.57,1.13-.83,2.76-.91,4.9-.25,2.14,.66,4.33,2.53,6.58,5.59,2.17,2.96,4.08,6.72,5.73,11.29,1.66,4.57,3.03,9.58,4.12,15.02,1.09,5.44,1.83,10.96,2.21,16.55,.38,5.59,.37,10.88-.02,15.88-.39,5-1.21,9.35-2.45,13.07-1.24,3.72-2.96,6.39-5.17,8Z"/><path d="M495.27,302.05c-.79,.72-1.67,1.16-2.65,1.33-.98,.17-1.84-.17-2.61-1-.94-1.03-1.16-2.48-.65-4.35,.51-1.86,1.36-3.34,2.54-4.41,.74-.67,1.49-1.04,2.24-1.1,.76-.06,1.52,.33,2.28,1.17,.86,.94,1.17,2.3,.95,4.08-.22,1.78-.93,3.21-2.11,4.29Zm22.01,41.92c-1.92,1.75-3.9,2.45-5.94,2.1-2.04-.35-3.84-1.39-5.42-3.11-1.03-1.13-2.12-2.75-3.28-4.86-1.15-2.11-2.25-4.42-3.29-6.95-1.04-2.52-1.87-5.04-2.48-7.55-.62-2.5-.89-4.76-.82-6.76,.07-2,.59-3.45,1.58-4.35,.44-.4,.95-.62,1.52-.64,.57-.02,1.1,.24,1.59,.78,.54,.59,1.03,1.9,1.48,3.93,.45,2.03,.94,4.37,1.48,7.04,.54,2.67,1.29,5.3,2.26,7.89,.97,2.59,2.24,4.75,3.81,6.47,1.62,1.77,2.99,2.69,4.12,2.74,1.13,.05,2.31-.48,3.54-1.61,1.67-1.53,2.7-3.99,3.06-7.4,.37-3.4-.3-8.17-2-14.28l1.34,.13c2.44,5.54,3.35,10.67,2.73,15.38-.62,4.71-2.38,8.4-5.28,11.05Z"/><path d="M554.41,305.87c-1.58,1.72-3.21,2.6-4.88,2.65-1.67,.05-3.2-.56-4.57-1.83-1.03-.95-1.94-2.12-2.73-3.53-.79-1.41-1.63-2.83-2.51-4.28-.89-1.45-1.89-2.69-3.02-3.73-1.37-1.26-2.58-1.85-3.61-1.76-1.03,.09-1.93,.55-2.7,1.39-1.4,1.52-2.2,3.64-2.39,6.36-.19,2.72,0,5.71,.59,8.96,.58,3.26,1.32,6.47,2.21,9.64,.89,3.17,1.69,5.99,2.41,8.46-.72,.79-1.55,1.41-2.47,1.87-.92,.46-1.84,.64-2.74,.54-.24-.23-.77-1.18-1.57-2.87-.8-1.69-1.82-3.73-3.05-6.14-1.23-2.4-2.58-4.77-4.05-7.12-1.47-2.34-3.01-4.26-4.63-5.75-.07-.61,.01-1.39,.26-2.35,.24-.95,.68-1.77,1.31-2.46,1.22-1.32,2.47-1.4,3.74-.23,.79,.72,1.89,2.15,3.33,4.28,1.43,2.13,2.84,4.47,4.22,7.01-.79-3.18-1.43-6.5-1.9-9.97-.48-3.47-.52-6.75-.13-9.83,.39-3.08,1.44-5.56,3.16-7.42,1.76-1.91,3.72-2.67,5.88-2.26,2.16,.41,4.08,1.38,5.75,2.91,1.52,1.4,2.71,2.94,3.56,4.63,.85,1.69,1.64,3.34,2.37,4.96,.73,1.62,1.71,3,2.93,4.12,1.03,.95,1.95,1.41,2.75,1.37,.8-.03,1.49-.37,2.08-1.01,1.13-1.23,1.68-2.98,1.66-5.27-.02-2.29-.39-4.82-1.09-7.6-.71-2.78-1.56-5.44-2.56-8l1.7,.07c1.46,3.24,2.53,6.36,3.22,9.35,.69,2.99,.88,5.75,.56,8.26-.32,2.51-1.34,4.7-3.05,6.57Z"/></g></svg>