<?xml version="1.0" encoding="UTF-8"?><svg id="Layer_2" xmlns="http://www.w3.org/2000/svg" width="720.64" height="499.89" viewBox="0 0 720.64 499.89"><defs><style>.cls-1{font-family:DancingScript-Regular, 'Dancing Script';font-size:100px;font-variation-settings:'wght' 400;}.cls-2{fill:none;stroke:#000;stroke-miterlimit:10;}</style></defs><path class="cls-2" d="M585.96,223.75c3.6-.28,23.26-2.13,37.81-19.3,14.59-17.21,13.16-36.98,12.83-40.56"/><path class="cls-2" d="M588.45,187.44c1.19-.28,11.91-3.05,16.5-13.74,3.36-7.82,2.18-16.95-3.04-23.89"/><path class="cls-2" d="M575.77,271.93c2.25-5.36,4.45-11.62,6.24-18.71,2.83-11.22,3.78-21.31,3.95-29.47"/><path class="cls-2" d="M170.29,470.74c-9.14,1.16-22.3,2.51-38.21,3.02-10.55,.34-31.02,.92-49.45-1.74-18.76-2.71-59.66-8.62-75.74-33.97-14.25-22.47-3.09-50.91,17.73-103.97,11.74-29.91,27.34-68.73,62.16-111.39,37.63-46.1,77.26-71.65,93.14-81.18,20.47-12.28,131.71-79.02,265.25-41.15,69.55,19.73,116.89,59.81,143.28,87.07"/><path class="cls-2" d="M659.97,23.96c-43.28,16.51-82.98,23.01-114.23,25.35,22.51-10.19,48.89-20.49,78.89-29.39,31-9.19,59.6-15.01,84.67-18.73-14.45,7.9-30.9,15.74-49.34,22.78Z"/><path class="cls-2" d="M709.1,.2c4.95,11.1,11.19,29.18,11.04,51.84-.08,12.21-2.22,56.45-37.55,87.74-16.54,14.65-34.28,21.09-45.99,24.11"/><path class="cls-2" d="M544.77,49.51c-1.76,4.29-12.53,31.8,1.74,60.98,16.29,33.31,51.09,39.9,54.64,40.51"/><path class="cls-2" d="M548.11,113.21c9.44,1.56,22.47,2.22,36.25-2.61,18.27-6.4,20.32-16.31,38.34-21.03,17.88-4.69,21.36,3.62,37.47-2.27,12.98-4.74,14.5-11.52,30.23-19.68,11.46-5.95,22.06-8.27,29.04-9.3"/><text class="cls-1" transform="translate(188.95 468.76) rotate(-8.84)"><tspan x="0" y="0">F</tspan></text><text class="cls-1" transform="translate(235.44 461.31) rotate(-11.17)"><tspan x="0" y="0">i</tspan></text><text class="cls-1" transform="translate(260.64 456.4) rotate(-13.21)"><tspan x="0" y="0">s</tspan></text><text class="cls-1" transform="translate(295.68 448.09) rotate(-15.21)"><tspan x="0" y="0">k</tspan></text><text class="cls-1" transform="translate(340.19 435.97) rotate(-17.27)"><tspan x="0" y="0"> </tspan></text><text class="cls-1" transform="translate(369.12 427.86) rotate(-22.45)"><tspan x="0" y="0">&amp;</tspan></text><text class="cls-1" transform="translate(430.31 401.18) rotate(-29.25)"><tspan x="0" y="0"> </tspan></text><text class="cls-1" transform="translate(458.17 386.5) rotate(-36.23)"><tspan x="0" y="0">V</tspan></text><text class="cls-1" transform="translate(510.21 346.9) rotate(-42.38)"><tspan x="0" y="0">i</tspan></text><text class="cls-1" transform="translate(531.07 328.29) rotate(-47.39)"><tspan x="0" y="0">n</tspan></text></svg>